<svg xmlns="http://www.w3.org/2000/svg" xmlns:xlink="http://www.w3.org/1999/xlink"
     viewBox="0 0 926.98 545.62">
  <defs>
    <style>.cls-1 {
      fill: url(#radial-gradient);
    }

    .cls-2 {
      fill: url(#radial-gradient-2);
    }

    .cls-3 {
      fill: url(#radial-gradient-3);
    }

    .cls-4 {
      fill: url(#radial-gradient-6);
    }

    .cls-5 {
      fill: url(#radial-gradient-7);
    }

    .cls-6 {
      fill: url(#radial-gradient-8);
    }

    .cls-7 {
      fill: url(#radial-gradient-9);
    }

    .cls-8 {
      fill: url(#radial-gradient-10);
    }

    .cls-9 {
      fill: url(#radial-gradient-11);
    }

    .cls-10 {
      fill: url(#radial-gradient-14);
    }

    .cls-11 {
      fill: url(#radial-gradient-19);
    }

    .cls-12 {
      fill: url(#radial-gradient-24);
    }

    .cls-13 {
      fill: url(#radial-gradient-25);
    }</style>
    <radialGradient id="radial-gradient" cx="463.48" cy="190.77" r="4.46"
                    gradientTransform="translate(190.68 736.3) rotate(-90)" gradientUnits="userSpaceOnUse">
      <stop offset="0" stop-color="#009fe3"/>
      <stop offset="1" stop-color="#005fab"/>
    </radialGradient>
    <radialGradient id="radial-gradient-2" cx="458.55" cy="190.77" r="0.97" xlink:href="#radial-gradient"/>
    <radialGradient id="radial-gradient-3" cx="468.42" cy="190.77" r="0.97" xlink:href="#radial-gradient"/>
    <radialGradient id="radial-gradient-6" cx="463.48" cy="354.83" r="5.04" xlink:href="#radial-gradient"/>
    <radialGradient id="radial-gradient-7" cx="558.83" cy="433.68" r="118.81" xlink:href="#radial-gradient"/>
    <radialGradient id="radial-gradient-8" cx="545.62" cy="463.51" r="190.68" xlink:href="#radial-gradient"/>
    <radialGradient id="radial-gradient-9" cx="504.55" cy="545.63" r="212.21" xlink:href="#radial-gradient"/>
    <radialGradient id="radial-gradient-10" cx="463.49" cy="272.81" r="380.3" xlink:href="#radial-gradient"/>
    <radialGradient id="radial-gradient-11" cx="457.75" cy="354.83" r="0.99" xlink:href="#radial-gradient"/>
    <radialGradient id="radial-gradient-14" cx="469.21" cy="354.83" r="0.99" xlink:href="#radial-gradient"/>
    <radialGradient id="radial-gradient-19" cx="368.14" cy="111.93" r="118.81" xlink:href="#radial-gradient"/>
    <radialGradient id="radial-gradient-24" cx="422.43" cy="-0.01" r="212.21" xlink:href="#radial-gradient"/>
    <radialGradient id="radial-gradient-25" cx="381.35" cy="82.12" r="190.68" xlink:href="#radial-gradient"/>
  </defs>
  <g id="Layer_2" data-name="Layer 2">
    <g id="Logo">
      <path class="cls-1"
            d="M381.48,279.12c0-.26,0-.55,0-.82,0-.64-.05-1.27-.06-1.92C381.42,277.31,381.44,278.21,381.48,279.12Zm-.07-9.86c0-.65,0-1.28.06-1.92,0-.27,0-.56,0-.82C381.44,267.43,381.42,268.33,381.41,269.26Z"/>
      <path class="cls-2"
            d="M381.41,276.38c0,.65,0,1.28.06,1.92,0,.27,0,.56,0,.82C381.44,278.21,381.42,277.31,381.41,276.38Z"/>
      <path class="cls-3"
            d="M381.48,266.52c0,.26,0,.55,0,.82,0,.64-.05,1.27-.06,1.92C381.42,268.33,381.44,267.43,381.48,266.52Z"/>
      <path class="cls-2"
            d="M381.41,276.38c0,.65,0,1.28.06,1.92,0,.27,0,.56,0,.82C381.44,278.21,381.42,277.31,381.41,276.38Z"/>
      <path class="cls-3"
            d="M381.48,266.52c0,.26,0,.55,0,.82,0,.64-.05,1.27-.06,1.92C381.42,268.33,381.44,267.43,381.48,266.52Z"/>
      <path class="cls-4"
            d="M545.51,267.34c0,.37,0,.77,0,1.15,0-.93,0-1.86-.09-2.79C545.48,266.25,545.5,266.78,545.51,267.34Zm0,11c0,.56,0,1.09,0,1.64,0-.93.08-1.86.09-2.79C545.55,277.53,545.53,277.93,545.51,278.3Z"/>
      <path class="cls-5"
            d="M572.05,82.12A190.6,190.6,0,0,1,762.72,269.84,108.59,108.59,0,0,0,657.16,164.28c-1,0-2,0-3,0s-2,0-3,0A108.59,108.59,0,0,0,545.64,269.84c0,1,0,2,0,3,0-1.45,0-2.88-.05-4.33,0-.93,0-1.86-.09-2.79l-.05-1.56A270.75,270.75,0,0,0,486,102.61,189.7,189.7,0,0,1,572.05,82.12Z"/>
      <path class="cls-6"
            d="M654.18,0a190.69,190.69,0,0,1,3,381.36A108.61,108.61,0,0,0,762.72,275.78c0-1,0-2,0-3s0-2,0-3A190.74,190.74,0,0,0,486,102.61c-.18-.25-.39-.5-.58-.74A276.91,276.91,0,0,0,463.5,77.71,271.94,271.94,0,0,1,654.18,0Z"/>
      <path class="cls-7"
            d="M654.18,0C804.84,0,927,122.16,927,272.82a190.68,190.68,0,0,1-381.34,3A108.6,108.6,0,0,0,651.2,381.36c1,0,2,0,3,0s2,0,3,0A190.69,190.69,0,0,0,654.18,0Z"/>
      <path class="cls-8"
            d="M0,272.82a190.68,190.68,0,0,1,381.34-3c0,1,0,2,0,3,0,1.2,0,2.38,0,3.56,0,.65,0,1.28.06,1.92,0,.27,0,.56,0,.82s0,.56,0,.82A270.76,270.76,0,0,0,441,443c.21.25.41.51.6.76A273.2,273.2,0,0,0,654.18,545.62c150.66,0,272.8-122.14,272.8-272.8a190.68,190.68,0,0,1-381.34,3c0-1,0-2,0-3,0-1.45,0-2.88-.05-4.33,0-.38,0-.78,0-1.15,0-.56,0-1.09,0-1.64l-.05-1.56A270.75,270.75,0,0,0,486,102.61c-.18-.25-.39-.5-.58-.74A276.91,276.91,0,0,0,463.5,77.71,272,272,0,0,0,272.8,0C122.14,0,0,122.16,0,272.82Zm545.47,7.12c0-.55,0-1.08,0-1.64,0-.37,0-.77,0-1.15C545.55,278.08,545.51,279,545.47,279.94Zm-164-12.6c0,.64-.05,1.27-.06,1.92,0-.93,0-1.83.07-2.74C381.48,266.78,381.48,267.07,381.47,267.34Z"/>
      <path class="cls-9"
            d="M545.56,277.15c0,.93,0,1.86-.09,2.79,0-.55,0-1.08,0-1.64C545.53,277.93,545.55,277.53,545.56,277.15Z"/>
      <path class="cls-2"
            d="M381.41,276.38c0,.65,0,1.28.06,1.92,0,.27,0,.56,0,.82C381.44,278.21,381.42,277.31,381.41,276.38Z"/>
      <path class="cls-3"
            d="M381.48,266.52c0,.26,0,.55,0,.82,0,.64-.05,1.27-.06,1.92C381.42,268.33,381.44,267.43,381.48,266.52Z"/>
      <path class="cls-10"
            d="M545.47,265.7c0,.93.08,1.86.09,2.79,0-.38,0-.78,0-1.15C545.5,266.78,545.48,266.25,545.47,265.7Z"/>
      <path class="cls-9"
            d="M545.56,277.15c0,.93,0,1.86-.09,2.79,0-.55,0-1.08,0-1.64C545.53,277.93,545.55,277.53,545.56,277.15Z"/>
      <path class="cls-10"
            d="M545.47,265.7c0,.93.08,1.86.09,2.79,0-.38,0-.78,0-1.15C545.5,266.78,545.48,266.25,545.47,265.7Z"/>
      <path class="cls-9"
            d="M545.56,277.15c0,.93,0,1.86-.09,2.79,0-.55,0-1.08,0-1.64C545.53,277.93,545.55,277.53,545.56,277.15Z"/>
      <path class="cls-10"
            d="M545.47,265.7c0,.93.08,1.86.09,2.79,0-.38,0-.78,0-1.15C545.5,266.78,545.48,266.25,545.47,265.7Z"/>
      <path class="cls-11"
            d="M381.37,272.82c0,1.2,0,2.38,0,3.56,0,.93,0,1.83.07,2.74,0,.27,0,.56,0,.82A270.76,270.76,0,0,0,441,443,190.65,190.65,0,0,1,164.27,275.78,108.58,108.58,0,0,0,269.84,381.36c1,0,2,0,3,0s2,0,3,0A108.59,108.59,0,0,0,381.34,275.78C381.37,274.81,381.37,273.81,381.37,272.82Z"/>
      <path class="cls-2"
            d="M381.41,276.38c0,.65,0,1.28.06,1.92,0,.27,0,.56,0,.82C381.44,278.21,381.42,277.31,381.41,276.38Z"/>
      <path class="cls-9"
            d="M545.56,277.15c0,.93,0,1.86-.09,2.79,0-.55,0-1.08,0-1.64C545.53,277.93,545.55,277.53,545.56,277.15Z"/>
      <path class="cls-10"
            d="M545.47,265.7c0,.93.08,1.86.09,2.79,0-.38,0-.78,0-1.15C545.5,266.78,545.48,266.25,545.47,265.7Z"/>
      <path class="cls-3"
            d="M381.48,266.52c0,.26,0,.55,0,.82,0,.64-.05,1.27-.06,1.92C381.42,268.33,381.44,267.43,381.48,266.52Z"/>
      <path class="cls-12"
            d="M190.68,82.12A190.57,190.57,0,0,1,381.34,269.84,108.61,108.61,0,0,0,275.77,164.28c-1,0-2,0-3,0s-2,0-3,0a190.68,190.68,0,0,0,3,381.34C122.14,545.62,0,423.48,0,272.82A190.64,190.64,0,0,1,190.68,82.12Z"/>
      <path class="cls-13"
            d="M269.84,164.28A108.6,108.6,0,0,0,164.27,269.84c0,1,0,2,0,3s0,2,0,3a189.34,189.34,0,0,0,21.15,84.43A190.77,190.77,0,0,0,441,443c.21.25.41.51.6.76a271.35,271.35,0,0,0,21.94,24.14,271.86,271.86,0,0,1-190.7,77.71,190.68,190.68,0,0,1-3-381.34Z"/>
    </g>
  </g>
</svg>
